# xmcd CD database file
#
# Track frame offsets:
#	150
#	17180
#	38840
#	59255
#	69745
#	84505
#	101802
#	122570
#	144372
#	169317
#	206775
#	225180
#	242472
#	275390
#	296065
#	313602
#	319387
#	335642
#
# Disc length: 4624 seconds
#
# Revision: 1
# Processed by: cddbd v1.5.1PL0 Copyright (c) Steve Scherf et al.
# Submitted via: CDex 1.51
#
DISCID=0a120e12
DTITLE=ボ・ガンボス - THE KING OF ROCK'N' ROLL
DYEAR=1994
DGENRE=Rock
TTITLE0=DO YOU REMEMBER ROCK'N' ROLL RADIO
TTITLE1=JOHNNY B. GOODE
TTITLE2=THAT'LL BE THE DAY
TTITLE3=THAT'S ALL RIGHT
TTITLE4=GREAT BALL OF FIRE
TTITLE5=CRUEL TO BE KIND
TTITLE6=BREAK ON THROUGH
TTITLE7=SUMMERTIME
TTITLE8=SWEET JANE
TTITLE9=HELPLESS
TTITLE10=TIME IS ON MY SIDE
TTITLE11=LOOKING FOR A LOVE
TTITLE12=POLK SALAD ANNIE
TTITLE13=MONA
TTITLE14=GUNSLINGER
TTITLE15=I'M ALRIGHT
TTITLE16=HEY! BO DIDDLEY
TTITLE17=GOODNIGHT SWEETHEART
EXTD=YEAR: 1994
EXTT0=
EXTT1=
EXTT2=
EXTT3=
EXTT4=
EXTT5=
EXTT6=
EXTT7=
EXTT8=
EXTT9=
EXTT10=
EXTT11=
EXTT12=
EXTT13=
EXTT14=
EXTT15=
EXTT16=
EXTT17=
PLAYORDER=
